<mxfile host="app.diagrams.net" modified="2020-11-30T12:45:44.618Z" agent="5.0 (Macintosh; Intel Mac OS X 10_15_3) AppleWebKit/537.36 (KHTML, like Gecko) Chrome/87.0.4280.67 Safari/537.36" etag="vjKMGez5eE_OxHjOY-Z3" version="13.10.4" type="github">
  <diagram id="e_Nu4UiDqZK5FSXZQxsC" name="Page-1">
    <mxGraphModel dx="1684" dy="485" grid="1" gridSize="10" guides="1" tooltips="1" connect="1" arrows="1" fold="1" page="1" pageScale="1" pageWidth="850" pageHeight="1100" math="0" shadow="0">
      <root>
        <mxCell id="0" />
        <mxCell id="1" parent="0" />
        <mxCell id="EZBb4ChviIudJLhnY7K9-9" value="" style="whiteSpace=wrap;html=1;aspect=fixed;fillColor=#d5e8d4;strokeColor=#82b366;" vertex="1" parent="1">
          <mxGeometry x="435.38" y="358" width="161" height="161" as="geometry" />
        </mxCell>
        <mxCell id="EZBb4ChviIudJLhnY7K9-12" value="" style="whiteSpace=wrap;html=1;aspect=fixed;fillColor=#d5e8d4;strokeColor=#82b366;" vertex="1" parent="1">
          <mxGeometry x="274.38" y="358" width="161" height="161" as="geometry" />
        </mxCell>
        <mxCell id="EZBb4ChviIudJLhnY7K9-13" value="" style="whiteSpace=wrap;html=1;aspect=fixed;fillColor=#d5e8d4;strokeColor=#82b366;" vertex="1" parent="1">
          <mxGeometry x="113.63" y="358" width="161" height="161" as="geometry" />
        </mxCell>
        <mxCell id="EZBb4ChviIudJLhnY7K9-14" value="" style="whiteSpace=wrap;html=1;aspect=fixed;fillColor=#d5e8d4;strokeColor=#82b366;" vertex="1" parent="1">
          <mxGeometry x="435.26" y="197" width="161" height="161" as="geometry" />
        </mxCell>
        <mxCell id="EZBb4ChviIudJLhnY7K9-15" value="" style="whiteSpace=wrap;html=1;aspect=fixed;fillColor=#d5e8d4;strokeColor=#82b366;" vertex="1" parent="1">
          <mxGeometry x="274.26" y="197" width="161" height="161" as="geometry" />
        </mxCell>
        <mxCell id="EZBb4ChviIudJLhnY7K9-16" value="" style="whiteSpace=wrap;html=1;aspect=fixed;fillColor=#d5e8d4;strokeColor=#82b366;" vertex="1" parent="1">
          <mxGeometry x="113.50999999999999" y="197" width="161" height="161" as="geometry" />
        </mxCell>
        <mxCell id="EZBb4ChviIudJLhnY7K9-17" value="" style="whiteSpace=wrap;html=1;aspect=fixed;fillColor=#d5e8d4;strokeColor=#82b366;" vertex="1" parent="1">
          <mxGeometry x="435.13" y="36" width="161" height="161" as="geometry" />
        </mxCell>
        <mxCell id="EZBb4ChviIudJLhnY7K9-18" value="" style="whiteSpace=wrap;html=1;aspect=fixed;fillColor=#d5e8d4;strokeColor=#82b366;" vertex="1" parent="1">
          <mxGeometry x="274.13" y="36" width="161" height="161" as="geometry" />
        </mxCell>
        <mxCell id="EZBb4ChviIudJLhnY7K9-19" value="" style="whiteSpace=wrap;html=1;aspect=fixed;fillColor=#d5e8d4;strokeColor=#82b366;" vertex="1" parent="1">
          <mxGeometry x="113.38" y="36" width="161" height="161" as="geometry" />
        </mxCell>
        <mxCell id="trqewR6XDROr1OXFbvpF-8" value="Chaotic" style="text;html=1;align=center;verticalAlign=middle;resizable=0;points=[];autosize=1;fontSize=20;" parent="1" vertex="1">
          <mxGeometry x="315" y="525" width="80" height="30" as="geometry" />
        </mxCell>
        <mxCell id="trqewR6XDROr1OXFbvpF-9" value="Lawful" style="text;html=1;align=center;verticalAlign=middle;resizable=0;points=[];autosize=1;fontSize=20;" parent="1" vertex="1">
          <mxGeometry x="329" y="5" width="70" height="30" as="geometry" />
        </mxCell>
        <mxCell id="trqewR6XDROr1OXFbvpF-10" value="Enactivist" style="text;html=1;align=center;verticalAlign=middle;resizable=0;points=[];autosize=1;fontSize=20;" parent="1" vertex="1">
          <mxGeometry x="605" y="265" width="100" height="30" as="geometry" />
        </mxCell>
        <mxCell id="trqewR6XDROr1OXFbvpF-11" value="Functionalist" style="text;html=1;align=center;verticalAlign=middle;resizable=0;points=[];autosize=1;fontSize=20;" parent="1" vertex="1">
          <mxGeometry x="-12" y="265" width="130" height="30" as="geometry" />
        </mxCell>
        <mxCell id="trqewR6XDROr1OXFbvpF-18" value="Model Making" style="ellipse;whiteSpace=wrap;html=1;aspect=fixed;fontSize=12;labelPosition=left;verticalLabelPosition=middle;align=right;verticalAlign=middle;" parent="1" vertex="1">
          <mxGeometry x="250" y="340" width="10" height="10" as="geometry" />
        </mxCell>
        <mxCell id="trqewR6XDROr1OXFbvpF-23" value="Thousand&lt;br&gt;Brains" style="ellipse;whiteSpace=wrap;html=1;aspect=fixed;fontSize=12;labelPosition=left;verticalLabelPosition=middle;align=right;verticalAlign=middle;" parent="1" vertex="1">
          <mxGeometry x="370" y="395" width="10" height="10" as="geometry" />
        </mxCell>
        <mxCell id="trqewR6XDROr1OXFbvpF-26" value="GOFAI" style="ellipse;whiteSpace=wrap;html=1;aspect=fixed;fontSize=12;labelPosition=left;verticalLabelPosition=middle;align=right;verticalAlign=middle;" parent="1" vertex="1">
          <mxGeometry x="225" y="160" width="10" height="10" as="geometry" />
        </mxCell>
        <mxCell id="trqewR6XDROr1OXFbvpF-28" value="Deep Learning" style="ellipse;whiteSpace=wrap;html=1;aspect=fixed;fontSize=12;labelPosition=left;verticalLabelPosition=middle;align=right;verticalAlign=middle;" parent="1" vertex="1">
          <mxGeometry x="465" y="255" width="10" height="10" as="geometry" />
        </mxCell>
        <mxCell id="trqewR6XDROr1OXFbvpF-29" value="Capsule&lt;br&gt;Networks" style="ellipse;whiteSpace=wrap;html=1;aspect=fixed;fontSize=12;labelPosition=left;verticalLabelPosition=middle;align=right;verticalAlign=middle;" parent="1" vertex="1">
          <mxGeometry x="420" y="370" width="10" height="10" as="geometry" />
        </mxCell>
        <mxCell id="trqewR6XDROr1OXFbvpF-39" value="Meta Learning" style="ellipse;whiteSpace=wrap;html=1;aspect=fixed;fontSize=12;labelPosition=left;verticalLabelPosition=middle;align=right;verticalAlign=middle;" parent="1" vertex="1">
          <mxGeometry x="396" y="175" width="10" height="10" as="geometry" />
        </mxCell>
        <mxCell id="trqewR6XDROr1OXFbvpF-55" value="Analogy&lt;br&gt;Making" style="ellipse;whiteSpace=wrap;html=1;aspect=fixed;fontSize=12;labelPosition=left;verticalLabelPosition=middle;align=right;verticalAlign=middle;" parent="1" vertex="1">
          <mxGeometry x="235" y="405" width="10" height="10" as="geometry" />
        </mxCell>
        <mxCell id="trqewR6XDROr1OXFbvpF-59" value="Reality as Illusion" style="ellipse;whiteSpace=wrap;html=1;aspect=fixed;fontSize=12;labelPosition=left;verticalLabelPosition=middle;align=right;verticalAlign=middle;" parent="1" vertex="1">
          <mxGeometry x="340" y="470" width="10" height="10" as="geometry" />
        </mxCell>
        <mxCell id="trqewR6XDROr1OXFbvpF-63" value="Compresson" style="ellipse;whiteSpace=wrap;html=1;aspect=fixed;fontSize=12;labelPosition=left;verticalLabelPosition=middle;align=right;verticalAlign=middle;" parent="1" vertex="1">
          <mxGeometry x="200" y="60" width="10" height="10" as="geometry" />
        </mxCell>
        <mxCell id="trqewR6XDROr1OXFbvpF-70" value="Cognitve Synergy" style="ellipse;whiteSpace=wrap;html=1;aspect=fixed;fontSize=12;labelPosition=left;verticalLabelPosition=middle;align=right;verticalAlign=middle;" parent="1" vertex="1">
          <mxGeometry x="370" y="230" width="10" height="10" as="geometry" />
        </mxCell>
        <mxCell id="trqewR6XDROr1OXFbvpF-71" value="Causal Graphs" style="ellipse;whiteSpace=wrap;html=1;aspect=fixed;fontSize=12;labelPosition=left;verticalLabelPosition=middle;align=right;verticalAlign=middle;" parent="1" vertex="1">
          <mxGeometry x="340" y="130" width="10" height="10" as="geometry" />
        </mxCell>
        <mxCell id="trqewR6XDROr1OXFbvpF-72" value="Bitter Lesson" style="ellipse;whiteSpace=wrap;html=1;aspect=fixed;fontSize=12;labelPosition=left;verticalLabelPosition=middle;align=right;verticalAlign=middle;" parent="1" vertex="1">
          <mxGeometry x="570" y="210" width="10" height="10" as="geometry" />
        </mxCell>
        <mxCell id="trqewR6XDROr1OXFbvpF-75" value="Reinforcement Learning" style="ellipse;whiteSpace=wrap;html=1;aspect=fixed;fontSize=12;labelPosition=left;verticalLabelPosition=middle;align=right;verticalAlign=middle;" parent="1" vertex="1">
          <mxGeometry x="580" y="310" width="10" height="10" as="geometry" />
        </mxCell>
        <mxCell id="trqewR6XDROr1OXFbvpF-78" value="Induction Bias" style="ellipse;whiteSpace=wrap;html=1;aspect=fixed;fontSize=12;labelPosition=left;verticalLabelPosition=middle;align=right;verticalAlign=middle;" parent="1" vertex="1">
          <mxGeometry x="359" y="330" width="10" height="10" as="geometry" />
        </mxCell>
        <mxCell id="trqewR6XDROr1OXFbvpF-83" value="Judgement" style="ellipse;whiteSpace=wrap;html=1;aspect=fixed;fontSize=12;labelPosition=left;verticalLabelPosition=middle;align=right;verticalAlign=middle;" parent="1" vertex="1">
          <mxGeometry x="183" y="440" width="10" height="10" as="geometry" />
        </mxCell>
        <mxCell id="trqewR6XDROr1OXFbvpF-84" value="Bayesian&lt;br&gt;Brain" style="ellipse;whiteSpace=wrap;html=1;aspect=fixed;fontSize=12;labelPosition=left;verticalLabelPosition=middle;align=right;verticalAlign=middle;" parent="1" vertex="1">
          <mxGeometry x="330" y="285" width="10" height="10" as="geometry" />
        </mxCell>
        <mxCell id="trqewR6XDROr1OXFbvpF-86" value="Skill Acquisition Efficiency" style="ellipse;whiteSpace=wrap;html=1;aspect=fixed;fontSize=12;labelPosition=left;verticalLabelPosition=middle;align=right;verticalAlign=middle;" parent="1" vertex="1">
          <mxGeometry x="426" y="205" width="10" height="10" as="geometry" />
        </mxCell>
        <mxCell id="trqewR6XDROr1OXFbvpF-87" value="RCN" style="ellipse;whiteSpace=wrap;html=1;aspect=fixed;fontSize=12;labelPosition=left;verticalLabelPosition=middle;align=right;verticalAlign=middle;" parent="1" vertex="1">
          <mxGeometry x="485" y="349" width="10" height="10" as="geometry" />
        </mxCell>
        <mxCell id="trqewR6XDROr1OXFbvpF-88" value="Evolution" style="ellipse;whiteSpace=wrap;html=1;aspect=fixed;fontSize=12;labelPosition=left;verticalLabelPosition=middle;align=right;verticalAlign=middle;" parent="1" vertex="1">
          <mxGeometry x="520" y="410" width="10" height="10" as="geometry" />
        </mxCell>
        <mxCell id="trqewR6XDROr1OXFbvpF-89" value="Free Energy Principle" style="ellipse;whiteSpace=wrap;html=1;aspect=fixed;fontSize=12;labelPosition=left;verticalLabelPosition=middle;align=right;verticalAlign=middle;" parent="1" vertex="1">
          <mxGeometry x="520" y="110" width="10" height="10" as="geometry" />
        </mxCell>
        <mxCell id="LOAbWyqPgFJrH-aSDBwY-21" value="Computational Complexity" style="ellipse;whiteSpace=wrap;html=1;aspect=fixed;fontSize=12;labelPosition=left;verticalLabelPosition=middle;align=right;verticalAlign=middle;" parent="1" vertex="1">
          <mxGeometry x="310" y="205" width="10" height="10" as="geometry" />
        </mxCell>
        <mxCell id="eXJtEBARMdF0W1MzuHGJ-7" value="Explanation&lt;br&gt;Generation" style="ellipse;whiteSpace=wrap;html=1;aspect=fixed;fontSize=12;labelPosition=left;verticalLabelPosition=middle;align=right;verticalAlign=middle;" parent="1" vertex="1">
          <mxGeometry x="235" y="370" width="10" height="10" as="geometry" />
        </mxCell>
        <mxCell id="eXJtEBARMdF0W1MzuHGJ-12" value="SelfPlay" style="ellipse;whiteSpace=wrap;html=1;aspect=fixed;fontSize=12;labelPosition=left;verticalLabelPosition=middle;align=right;verticalAlign=middle;" parent="1" vertex="1">
          <mxGeometry x="540" y="339" width="10" height="10" as="geometry" />
        </mxCell>
        <mxCell id="eXJtEBARMdF0W1MzuHGJ-14" value="Fast and Frugal" style="ellipse;whiteSpace=wrap;html=1;aspect=fixed;fontSize=12;labelPosition=left;verticalLabelPosition=middle;align=right;verticalAlign=middle;" parent="1" vertex="1">
          <mxGeometry x="290" y="440" width="10" height="10" as="geometry" />
        </mxCell>
        <mxCell id="eXJtEBARMdF0W1MzuHGJ-15" value="Future Freedom" style="ellipse;whiteSpace=wrap;html=1;aspect=fixed;fontSize=12;labelPosition=left;verticalLabelPosition=middle;align=right;verticalAlign=middle;" parent="1" vertex="1">
          <mxGeometry x="386" y="255" width="10" height="10" as="geometry" />
        </mxCell>
        <mxCell id="eXJtEBARMdF0W1MzuHGJ-17" value="Solomonoff Induction" style="ellipse;whiteSpace=wrap;html=1;aspect=fixed;fontSize=12;labelPosition=left;verticalLabelPosition=middle;align=right;verticalAlign=middle;direction=west;" parent="1" vertex="1">
          <mxGeometry x="183" y="90" width="10" height="10" as="geometry" />
        </mxCell>
      </root>
    </mxGraphModel>
  </diagram>
</mxfile>
